<svg xmlns="http://www.w3.org/2000/svg" viewBox="0 0 500 500" width="100%" height="100%">
  <defs>
    <radialGradient id="grad-44" cx="35%" cy="30%" r="65%">
      <stop offset="0%" stop-color="#dc26ff" />
      <stop offset="55%" stop-color="#ea1774" />
      <stop offset="100%" stop-color="#b24208" />
    </radialGradient>
    <filter id="shadow-44" x="-20%" y="-20%" width="140%" height="140%">
      <feDropShadow dx="0" dy="8" stdDeviation="6" flood-color="#0f0f23" flood-opacity="0.35"/>
    </filter>
  </defs>
  
  <g filter="url(#shadow-44)">
    <!-- Sticker Outer White Border -->
    <text x="250" y="325" 
          font-family="'Poppins', 'Montserrat', 'Arial Black', sans-serif" 
          font-weight="900" 
          font-size="220px" 
          fill="#ffffff" 
          stroke="#ffffff" 
          stroke-width="32" 
          stroke-linejoin="round" 
          stroke-linecap="round" 
          text-anchor="middle">44</text>
          
    <!-- Main Gradient Colored Number -->
    <text x="250" y="325" 
          font-family="'Poppins', 'Montserrat', 'Arial Black', sans-serif" 
          font-weight="900" 
          font-size="220px" 
          fill="url(#grad-44)" 
          text-anchor="middle">44</text>
  </g>
  
  <!-- Glossy Sheen Overlay -->
  <ellipse cx="250" cy="180" rx="180" ry="80" fill="#ffffff" opacity="0.18" clip-path="url(#clip-44)"/>
  
  <!-- Sparkle Stars -->
  <g fill="#ffffff">
    <path d="M 90 120 Q 90 135 75 135 Q 90 135 90 150 Q 90 135 105 135 Q 90 135 90 120 Z" />
    <path d="M 400 140 Q 400 152 388 152 Q 400 152 400 164 Q 400 152 412 152 Q 400 152 400 140 Z" />
    <circle cx="80" cy="380" r="8" fill="#dc26ff" opacity="0.85"/>
    <circle cx="420" cy="360" r="10" fill="#ea1774" opacity="0.85"/>
    <circle cx="430" cy="390" r="5" fill="#ffffff" opacity="0.9"/>
  </g>
</svg>